<svg xmlns="http://www.w3.org/2000/svg" width="64" height="64" viewBox="0 0 64 64">
  <defs>
    <radialGradient id="g1" cx="35%" cy="35%" r="65%">
      <stop offset="0%" stop-color="#A78BFA"/>
      <stop offset="50%" stop-color="#7C3AED"/>
      <stop offset="100%" stop-color="#5B21B6"/>
    </radialGradient>
    <radialGradient id="g2" cx="35%" cy="35%" r="65%">
      <stop offset="0%" stop-color="#C4B5FD"/>
      <stop offset="50%" stop-color="#8B5CF6"/>
      <stop offset="100%" stop-color="#6D28D9"/>
    </radialGradient>
  </defs>
  <!-- Stem -->
  <path d="M 32 8 Q 30 2 35 0" stroke="#16a34a" stroke-width="2.5" fill="none" stroke-linecap="round"/>
  <!-- Leaf -->
  <path d="M 34 1 Q 44 -4 46 5 Q 40 9 35 4 Z" fill="#22c55e"/>
  <!-- Row 1 -->
  <circle cx="24" cy="18" r="9" fill="url(#g1)" stroke="#6D28D9" stroke-width="0.5"/>
  <circle cx="40" cy="18" r="9" fill="url(#g2)" stroke="#6D28D9" stroke-width="0.5"/>
  <!-- Row 2 -->
  <circle cx="16" cy="33" r="9" fill="url(#g2)" stroke="#6D28D9" stroke-width="0.5"/>
  <circle cx="32" cy="33" r="9" fill="url(#g1)" stroke="#6D28D9" stroke-width="0.5"/>
  <circle cx="48" cy="33" r="9" fill="url(#g1)" stroke="#6D28D9" stroke-width="0.5"/>
  <!-- Row 3 -->
  <circle cx="24" cy="48" r="9" fill="url(#g1)" stroke="#6D28D9" stroke-width="0.5"/>
  <circle cx="40" cy="48" r="9" fill="url(#g2)" stroke="#6D28D9" stroke-width="0.5"/>
  <!-- Row 4 -->
  <circle cx="32" cy="60" r="9" fill="url(#g2)" stroke="#6D28D9" stroke-width="0.5"/>
  <!-- Highlights -->
  <ellipse cx="21" cy="15" rx="3" ry="2" fill="white" opacity="0.35" transform="rotate(-20 21 15)"/>
  <ellipse cx="37" cy="15" rx="3" ry="2" fill="white" opacity="0.35" transform="rotate(-20 37 15)"/>
  <ellipse cx="29" cy="30" rx="3" ry="2" fill="white" opacity="0.35" transform="rotate(-20 29 30)"/>
</svg>
